<mxfile host="app.diagrams.net" modified="2023-01-17T07:59:03.467Z" agent="5.0 (Windows NT 10.0; Win64; x64) AppleWebKit/537.36 (KHTML, like Gecko) Chrome/108.0.5359.125 Safari/537.36" etag="MN8Opzr5p8X2nKbSQ17b" version="20.8.5" type="github">
  <diagram id="C5RBs43oDa-KdzZeNtuy" name="Page-1">
    <mxGraphModel dx="1434" dy="699" grid="1" gridSize="10" guides="1" tooltips="1" connect="1" arrows="1" fold="1" page="1" pageScale="1" pageWidth="1040" pageHeight="520" math="0" shadow="0">
      <root>
        <mxCell id="WIyWlLk6GJQsqaUBKTNV-0" />
        <mxCell id="WIyWlLk6GJQsqaUBKTNV-1" parent="WIyWlLk6GJQsqaUBKTNV-0" />
        <mxCell id="viQAzkDIyvVS06g1v1qY-5" value="Requirements" style="swimlane;" parent="WIyWlLk6GJQsqaUBKTNV-1" vertex="1">
          <mxGeometry x="40" y="40" width="160" height="120" as="geometry">
            <mxRectangle x="40" y="40" width="120" height="30" as="alternateBounds" />
          </mxGeometry>
        </mxCell>
        <mxCell id="viQAzkDIyvVS06g1v1qY-19" value="Search required package and software to make python Development Environments (DE)" style="text;html=1;strokeColor=none;fillColor=none;align=center;verticalAlign=middle;whiteSpace=wrap;rounded=0;" parent="viQAzkDIyvVS06g1v1qY-5" vertex="1">
          <mxGeometry x="10" y="30" width="140" height="80" as="geometry" />
        </mxCell>
        <mxCell id="viQAzkDIyvVS06g1v1qY-6" value="Design" style="swimlane;" parent="WIyWlLk6GJQsqaUBKTNV-1" vertex="1">
          <mxGeometry x="240" y="120" width="160" height="120" as="geometry" />
        </mxCell>
        <mxCell id="9JNHWLNqs-FzcySSCMq5-3" value="Make concept of docker DE structure" style="rounded=0;whiteSpace=wrap;html=1;fillColor=none;strokeColor=none;" parent="viQAzkDIyvVS06g1v1qY-6" vertex="1">
          <mxGeometry x="10" y="30" width="140" height="80" as="geometry" />
        </mxCell>
        <mxCell id="viQAzkDIyvVS06g1v1qY-7" value="Implementation" style="swimlane;" parent="WIyWlLk6GJQsqaUBKTNV-1" vertex="1">
          <mxGeometry x="440" y="200" width="160" height="120" as="geometry" />
        </mxCell>
        <mxCell id="9JNHWLNqs-FzcySSCMq5-2" value="Setup entire system setting in docker container" style="rounded=0;whiteSpace=wrap;html=1;fillColor=none;strokeColor=none;" parent="viQAzkDIyvVS06g1v1qY-7" vertex="1">
          <mxGeometry x="10" y="30" width="140" height="80" as="geometry" />
        </mxCell>
        <mxCell id="viQAzkDIyvVS06g1v1qY-10" value="Verification" style="swimlane;" parent="WIyWlLk6GJQsqaUBKTNV-1" vertex="1">
          <mxGeometry x="640" y="280" width="160" height="120" as="geometry" />
        </mxCell>
        <mxCell id="_-eHahSXTpjEiGZ3lEuY-0" value="Setup entire system setting in docker container" style="rounded=0;whiteSpace=wrap;html=1;fillColor=none;strokeColor=none;" vertex="1" parent="viQAzkDIyvVS06g1v1qY-10">
          <mxGeometry x="10" y="30" width="140" height="80" as="geometry" />
        </mxCell>
        <mxCell id="viQAzkDIyvVS06g1v1qY-11" value="Maintenance" style="swimlane;" parent="WIyWlLk6GJQsqaUBKTNV-1" vertex="1">
          <mxGeometry x="840" y="360" width="160" height="120" as="geometry" />
        </mxCell>
      </root>
    </mxGraphModel>
  </diagram>
</mxfile>
